<svg xmlns="http://www.w3.org/2000/svg" width="400" height="520" viewBox="0 0 400 520">
<defs>
  <filter id="shadow" x="-30%" y="-30%" width="160%" height="160%"><feDropShadow dx="0" dy="12" stdDeviation="10" flood-color="#000" flood-opacity=".55"/></filter>
  <linearGradient id="metal" x1="0" y1="0" x2="1" y2="1"><stop offset="0" stop-color="#f4df8b"/><stop offset=".48" stop-color="#d8b14a"/><stop offset="1" stop-color="#7e5716"/></linearGradient>
</defs>
<rect width="400" height="520" rx="28" fill="#07131f"/>
<rect x="16" y="16" width="368" height="488" rx="22" fill="none" stroke="#27455f" stroke-width="2"/>
<g filter="url(#shadow)">
  <rect x="82" y="34" width="236" height="92" rx="8" fill="#101820" stroke="#d8b14a" stroke-width="5"/>
  <rect x="90.0" y="42" width="44.6" height="76" fill="#3f6aa6"/><rect x="134.0" y="42" width="44.6" height="76" fill="#ffffff"/><rect x="178.0" y="42" width="44.6" height="76" fill="#d8b14a"/><rect x="222.0" y="42" width="44.6" height="76" fill="#ffffff"/><rect x="266.0" y="42" width="44.6" height="76" fill="#3f6aa6"/>
  <rect x="90" y="42" width="220" height="76" rx="4" fill="none" stroke="#ffffff" stroke-opacity=".45" stroke-width="2"/>
  <path d="M155 126l22 58h46l22-58z" fill="#1b2631" stroke="#d8b14a" stroke-width="5"/>
  <g><circle cx="200" cy="194" r="110" fill="#3f6aa6" stroke="#d8b14a" stroke-width="14"/><path d="M174 114h52v54h54v52h-54v54h-52v-54h-54v-52h54z" fill="#f4df8b" stroke="#d8b14a" stroke-width="5"/><circle cx="200" cy="194" r="22" fill="#d8b14a"/></g>
</g>
<text x="200" y="438" fill="#d8b14a" font-family="Arial, sans-serif" font-size="22" font-weight="700" text-anchor="middle">MEDICAL EXCELLENCE</text>
<text x="200" y="468" fill="#9bc4e6" font-family="Arial, sans-serif" font-size="14" text-anchor="middle">Outstanding Medical Service</text>
</svg>